<svg width="24" height="24" viewBox="0 0 24 24" fill="none" xmlns="http://www.w3.org/2000/svg">
<path fill-rule="evenodd" clip-rule="evenodd" d="M10.4794 0.405346C11.1185 -0.045826 12.0007 0.411279 12.0007 1.19364C12.0007 1.69044 11.7611 1.94839 11.3856 2.21384C10.9575 2.51658 10.5957 2.77429 10.2891 3.00001H13.0007C13.7002 3.00001 14.3998 3.03059 15.0779 3.08106C17.6939 3.27575 19.0019 3.3731 20.3148 4.68598C21.6276 5.99885 21.725 7.30684 21.9197 9.92283C21.9701 10.601 22.0007 11.3005 22.0007 12C22.0007 12.6995 21.9701 13.3991 21.9197 14.0772C21.725 16.6932 21.6276 18.0012 20.3148 19.314C19.0019 20.6269 17.6939 20.7243 15.0779 20.919C14.3998 20.9694 13.7002 21 13.0007 21C12.3012 21 11.6017 20.9694 10.9235 20.919C8.30756 20.7243 6.99957 20.6269 5.68669 19.314C4.37382 18.0012 4.25672 16.6932 4.06202 14.0772C4.03565 13.7229 4.01471 13.3627 4.00073 12.9998C3.97946 12.4479 4.42869 12 4.98097 12C5.53326 12 5.97943 12.4479 6.00232 12.9997C6.01523 13.3108 6.03362 13.6212 6.05651 13.9287C6.2612 16.6791 6.39471 17.1936 7.10091 17.8998C7.80711 18.606 8.32163 18.7198 11.072 18.9245C11.7091 18.9719 12.3585 19 13.0007 19C13.6429 19 14.2923 18.9719 14.9295 18.9245C17.6798 18.7198 18.1943 18.606 18.9005 17.8998C19.6067 17.1936 19.7205 16.6791 19.9252 13.9287C19.9726 13.2916 20.0007 12.6422 20.0007 12C20.0007 11.3578 19.9726 10.7084 19.9252 10.0713C19.7205 7.32091 19.6067 6.80639 18.9005 6.10019C18.1943 5.39399 17.6798 5.28024 14.9295 5.07554C14.2923 5.02812 13.6429 5.00001 13.0007 5.00001H10.2891C10.5957 5.22572 10.9575 5.48343 11.3856 5.78617C11.7611 6.05162 12.0007 6.30957 12.0007 6.80637C12.0007 7.58873 11.1136 8.04234 10.4744 7.59117C8.15939 5.95702 7.00073 5.13913 7.00073 4C7.00073 2.86087 8.16436 2.03949 10.4794 0.405346Z" fill="#1D2023"/>
<path fill-rule="evenodd" clip-rule="evenodd" d="M13.2953 8.2002C12.9468 8.20016 12.6198 8.20013 12.3518 8.23618C12.0535 8.27628 11.7278 8.372 11.4587 8.64107C11.1897 8.91013 11.094 9.23586 11.0539 9.53409C11.0178 9.80214 11.0178 10.1292 11.0179 10.4776L11.0179 11.6661H10.4909C10.1094 11.6661 9.80005 11.9754 9.80005 12.357C9.80005 12.7386 10.1094 13.0479 10.4909 13.0479H11.0179V13.6649H10.4909C10.1094 13.6649 9.80005 13.9742 9.80005 14.3557C9.80005 14.7373 10.1094 15.0466 10.4909 15.0466H11.0179V15.7093C11.0179 16.0909 11.3272 16.4002 11.7088 16.4002C12.0903 16.4002 12.3997 16.0909 12.3997 15.7093V15.0466H14.4706C14.8521 15.0466 15.1615 14.7373 15.1615 14.3557C15.1615 13.9742 14.8521 13.6649 14.4706 13.6649H12.3997V13.0479H14.0319C14.232 13.0479 14.4236 13.0429 14.6044 13.0346C15.8206 12.9789 17.0699 12.1669 17.0699 10.698C17.0699 9.17292 15.7749 8.25249 14.4554 8.20748C14.3193 8.20284 14.1779 8.2002 14.0319 8.2002L13.2953 8.2002ZM12.3997 11.6661H13.6L14.0319 11.6661C14.2092 11.6661 14.3797 11.6617 14.5411 11.6543C15.2778 11.6205 15.6881 11.1948 15.6881 10.698C15.6881 10.1102 15.1921 9.61519 14.4082 9.58845C14.287 9.58431 14.1613 9.58197 14.0319 9.58197H13.3372C12.9336 9.58197 12.7008 9.58345 12.5359 9.60563C12.4895 9.61187 12.4595 9.61851 12.4413 9.6236C12.4362 9.64186 12.4295 9.67181 12.4233 9.71823C12.4011 9.88315 12.3997 10.116 12.3997 10.5196V11.6661Z" fill="black"/>
</svg>
