<svg preserveAspectRatio="none" width="100%" height="100%" overflow="visible" style="display: block;" viewBox="0 0 135.337 12.138" fill="none" xmlns="http://www.w3.org/2000/svg">
<g id="маркетолог">
<path d="M2.176 2.193V11.934H0V0.203999H3.706L7.293 9.809L10.914 0.203999H14.501V11.934H12.138V2.142L8.432 11.934H5.865L2.176 2.193Z" fill="var(--fill-0, #1D2023)"/>
<path d="M24.3574 0.203999L29.5254 11.934H27.0434L25.7344 8.925H19.4614L18.1524 11.934H15.9084L21.0934 0.203999H24.3574ZM20.2264 7.174H24.9694L22.5894 1.751L20.2264 7.174Z" fill="var(--fill-0, #1D2023)"/>
<path d="M38.3237 0.203999C39.695 0.203999 40.698 0.538333 41.3327 1.207C41.9787 1.86433 42.3017 2.79367 42.3017 3.995C42.3017 5.20767 41.9787 6.14833 41.3327 6.817C40.698 7.48567 39.695 7.82 38.3237 7.82H33.3087V11.934H30.9287V0.203999H38.3237ZM39.9047 3.774C39.9047 3.264 39.7574 2.85033 39.4627 2.533C39.168 2.21567 38.6807 2.057 38.0007 2.057H33.3087V5.967H38.0007C38.6807 5.967 39.168 5.814 39.4627 5.508C39.7574 5.19067 39.9047 4.777 39.9047 4.267V3.774Z" fill="var(--fill-0, #1D2023)"/>
<path d="M55.7376 0.203999L50.2806 5.848L56.0606 11.934H53.0006L48.1896 6.919H46.5236V11.934H44.1436V0.203999H46.5236V4.981H48.2746L52.9156 0.203999H55.7376Z" fill="var(--fill-0, #1D2023)"/>
<path d="M67.4224 0.203999V2.057H59.7384V5.049H65.6544V6.834H59.7384V10.081H67.4904V11.934H57.3584V0.203999H67.4224Z" fill="var(--fill-0, #1D2023)"/>
<path d="M68.4734 2.142V0.203999H80.4413V2.142H75.6473V11.934H73.2673V2.142H68.4734Z" fill="var(--fill-0, #1D2023)"/>
<path d="M92.3957 5.44C92.3957 4.148 92.0103 3.23 91.2397 2.686C90.4803 2.13067 89.347 1.853 87.8397 1.853C86.321 1.853 85.182 2.13067 84.4227 2.686C83.6633 3.23 83.2837 4.148 83.2837 5.44V6.647C83.2837 7.30433 83.3743 7.86533 83.5557 8.33C83.7483 8.78333 84.0317 9.15733 84.4057 9.452C84.791 9.73533 85.267 9.945 85.8337 10.081C86.4117 10.217 87.0803 10.285 87.8397 10.285C89.347 10.285 90.4803 10.0073 91.2397 9.452C92.0103 8.89667 92.3957 7.96167 92.3957 6.647V5.44ZM80.8867 6.018C80.8867 4.90733 81.034 3.97233 81.3287 3.213C81.6347 2.44233 82.0767 1.819 82.6547 1.343C83.244 0.867 83.9693 0.527 84.8307 0.323C85.7033 0.107667 86.7063 0 87.8397 0C88.973 0 89.9703 0.107667 90.8317 0.323C91.7043 0.527 92.4297 0.867 93.0077 1.343C93.597 1.819 94.039 2.44233 94.3337 3.213C94.6397 3.97233 94.7927 4.90733 94.7927 6.018C94.7927 7.15133 94.6397 8.109 94.3337 8.891C94.039 9.66167 93.597 10.2907 93.0077 10.778C92.4297 11.254 91.7043 11.5997 90.8317 11.815C89.9703 12.0303 88.973 12.138 87.8397 12.138C86.7063 12.138 85.7033 12.0303 84.8307 11.815C83.9693 11.5997 83.244 11.254 82.6547 10.778C82.0767 10.2907 81.6347 9.66167 81.3287 8.891C81.034 8.109 80.8867 7.15133 80.8867 6.018Z" fill="var(--fill-0, #1D2023)"/>
<path d="M95.8743 9.843C96.2823 9.843 96.6053 9.758 96.8433 9.588C97.0926 9.418 97.2796 9.146 97.4043 8.772C97.5403 8.398 97.631 7.91067 97.6763 7.31C97.7216 6.70933 97.7443 5.984 97.7443 5.134V0.203999H107.944V11.934H105.564V2.142H99.9543V5.134C99.9543 6.392 99.9033 7.45167 99.8013 8.313C99.6993 9.17433 99.5123 9.877 99.2403 10.421C98.9683 10.9537 98.5886 11.339 98.1013 11.577C97.614 11.815 96.985 11.934 96.2143 11.934H95.5173V9.843H95.8743Z" fill="var(--fill-0, #1D2023)"/>
<path d="M121.565 5.44C121.565 4.148 121.179 3.23 120.409 2.686C119.649 2.13067 118.516 1.853 117.009 1.853C115.49 1.853 114.351 2.13067 113.592 2.686C112.832 3.23 112.453 4.148 112.453 5.44V6.647C112.453 7.30433 112.543 7.86533 112.725 8.33C112.917 8.78333 113.201 9.15733 113.575 9.452C113.96 9.73533 114.436 9.945 115.003 10.081C115.581 10.217 116.249 10.285 117.009 10.285C118.516 10.285 119.649 10.0073 120.409 9.452C121.179 8.89667 121.565 7.96167 121.565 6.647V5.44ZM110.056 6.018C110.056 4.90733 110.203 3.97233 110.498 3.213C110.804 2.44233 111.246 1.819 111.824 1.343C112.413 0.867 113.138 0.527 114 0.323C114.872 0.107667 115.875 0 117.009 0C118.142 0 119.139 0.107667 120.001 0.323C120.873 0.527 121.599 0.867 122.177 1.343C122.766 1.819 123.208 2.44233 123.503 3.213C123.809 3.97233 123.962 4.90733 123.962 6.018C123.962 7.15133 123.809 8.109 123.503 8.891C123.208 9.66167 122.766 10.2907 122.177 10.778C121.599 11.254 120.873 11.5997 120.001 11.815C119.139 12.0303 118.142 12.138 117.009 12.138C115.875 12.138 114.872 12.0303 114 11.815C113.138 11.5997 112.413 11.254 111.824 10.778C111.246 10.2907 110.804 9.66167 110.498 8.891C110.203 8.109 110.056 7.15133 110.056 6.018Z" fill="var(--fill-0, #1D2023)"/>
<path d="M135.337 0.203999V2.142H128.452V11.934H126.072V0.203999H135.337Z" fill="var(--fill-0, #1D2023)"/>
</g>
</svg>