<svg preserveAspectRatio="none" width="100%" height="100%" overflow="visible" style="display: block;" viewBox="0 0 32 32" fill="none" xmlns="http://www.w3.org/2000/svg">
<g id="MTS">
<rect width="32" height="32" fill="#FF0032"/>
<g id="Shape">
<path d="M21.3109 2.37276V3.86565H24.527V9.70634L24.5277 9.8025H26.3282V3.86565H29.5443V2.37276H21.3109Z" fill="var(--fill-0, white)"/>
<path d="M9.72835 2.395L7.37613 7.27881L5.0239 2.395H2.45568V9.77962H4.25618V4.49461L6.5554 8.95954H8.1969L10.4968 4.49461V9.77962H12.2972V2.395H9.72835Z" fill="var(--fill-0, white)"/>
<path d="M27.7393 27.0097C27.7057 27.2825 27.5814 27.536 27.3865 27.7297C27.184 27.9139 26.9351 28.0395 26.6666 28.0929C26.2742 28.1706 25.8747 28.2068 25.4747 28.2009C25.0488 28.2085 24.6246 28.1464 24.2188 28.0169C23.8861 27.9089 23.5992 27.6925 23.4039 27.4024C23.2076 27.1118 23.1107 26.6923 23.1107 26.1589V25.4023C23.1107 24.8649 23.2096 24.4454 23.4039 24.1549C23.5988 23.8653 23.8849 23.6492 24.2168 23.5409C24.6226 23.4115 25.0469 23.3493 25.4728 23.357C25.8728 23.351 26.2723 23.3872 26.6646 23.465C26.9331 23.5185 27.182 23.6441 27.3846 23.8282C27.5795 24.0219 27.7037 24.2754 27.7373 24.5481H29.5391C29.5065 23.9801 29.2899 23.4381 28.9219 23.0042C28.559 22.6051 28.0893 22.3185 27.5685 22.1783C26.8853 21.998 26.1804 21.9137 25.4741 21.9276C24.6108 21.9276 23.8621 22.052 23.2488 22.2967C22.6421 22.5303 22.1339 22.9648 21.8089 23.5278C21.4915 24.073 21.3246 24.8008 21.3135 25.6929V25.7747L21.4097 25.7786H21.3135V25.8604C21.3246 26.7525 21.4915 27.4803 21.8089 28.0255C22.1339 28.5885 22.6421 29.023 23.2488 29.2565C23.8627 29.5013 24.6121 29.6257 25.4741 29.6257C26.1805 29.6399 26.8854 29.5556 27.5685 29.375C28.0896 29.2353 28.5594 28.9486 28.9219 28.549C29.29 28.1152 29.5067 27.5731 29.5391 27.0051L27.7393 27.0097Z" fill="var(--fill-0, white)"/>
</g>
</g>
</svg>