<svg width="16" height="16" viewBox="0 0 16 16" fill="none" xmlns="http://www.w3.org/2000/svg">
<path d="M11.3314 1.11477C11.3917 0.961743 11.6083 0.961743 11.6686 1.11477L11.9839 1.91401C12.0023 1.96073 12.0393 1.99772 12.086 2.01614L12.8852 2.33136C13.0383 2.39171 13.0383 2.60829 12.8852 2.66864L12.086 2.98386C12.0393 3.00228 12.0023 3.03927 11.9839 3.08599L11.6686 3.88523C11.6083 4.03826 11.3917 4.03826 11.3314 3.88523L11.0161 3.08599C10.9977 3.03927 10.9607 3.00228 10.914 2.98386L10.1148 2.66864C9.96174 2.60829 9.96174 2.39171 10.1148 2.33136L10.914 2.01614C10.9607 1.99772 10.9977 1.96073 11.0161 1.91401L11.3314 1.11477Z" fill="url(#paint0_linear_115_95519)"/>
<path fill-rule="evenodd" clip-rule="evenodd" d="M6.99798 2.33891C6.81976 1.88703 6.18024 1.88703 6.00202 2.33891L4.76839 5.46681C4.71398 5.60477 4.60477 5.71398 4.46681 5.76839L1.33891 7.00202C0.88703 7.18024 0.88703 7.81976 1.33891 7.99798L4.46681 9.23161C4.60477 9.28602 4.71398 9.39523 4.76839 9.53319L6.00202 12.6611C6.18024 13.113 6.81976 13.113 6.99798 12.6611L8.23161 9.53319C8.28602 9.39523 8.39523 9.28602 8.53319 9.23161L11.6611 7.99798C12.113 7.81976 12.113 7.18024 11.6611 7.00202L8.53319 5.76839C8.39523 5.71398 8.28602 5.60477 8.23161 5.46681L6.99798 2.33891ZM6.16379 6.01715L6.5 5.16467L6.83621 6.01715C7.04309 6.54169 7.45831 6.95691 7.98285 7.16379L8.83533 7.5L7.98285 7.83621C7.45831 8.04309 7.04309 8.45831 6.83621 8.98285L6.5 9.83533L6.16379 8.98285C5.95691 8.45831 5.5417 8.04309 5.01715 7.83621L4.16467 7.5L5.01715 7.16379C5.54169 6.95691 5.95691 6.5417 6.16379 6.01715Z" fill="url(#paint1_linear_115_95519)"/>
<path d="M12.7811 10.1913C12.6805 9.93624 12.3195 9.93624 12.2189 10.1913L11.6936 11.5234C11.6629 11.6012 11.6012 11.6629 11.5234 11.6936L10.1913 12.2189C9.93624 12.3195 9.93624 12.6805 10.1913 12.7811L11.5234 13.3064C11.6012 13.3371 11.6629 13.3988 11.6936 13.4766L12.2189 14.8087C12.3195 15.0638 12.6805 15.0638 12.7811 14.8087L13.3064 13.4766C13.3371 13.3988 13.3988 13.3371 13.4766 13.3064L14.8087 12.7811C15.0638 12.6805 15.0638 12.3195 14.8087 12.2189L13.4766 11.6936C13.3988 11.6629 13.3371 11.6012 13.3064 11.5234L12.7811 10.1913Z" fill="url(#paint2_linear_115_95519)"/>
<defs>
<linearGradient id="paint0_linear_115_95519" x1="-2.68761" y1="36.8289" x2="19.2447" y2="35.2545" gradientUnits="userSpaceOnUse">
<stop offset="0.16" stop-color="#FD3A60"/>
<stop offset="0.426197" stop-color="#E04DC0"/>
<stop offset="0.60438" stop-color="#B563F9"/>
<stop offset="0.843408" stop-color="#7C86FE"/>
</linearGradient>
<linearGradient id="paint1_linear_115_95519" x1="-2.68761" y1="36.8289" x2="19.2447" y2="35.2545" gradientUnits="userSpaceOnUse">
<stop offset="0.16" stop-color="#FD3A60"/>
<stop offset="0.426197" stop-color="#E04DC0"/>
<stop offset="0.60438" stop-color="#B563F9"/>
<stop offset="0.843408" stop-color="#7C86FE"/>
</linearGradient>
<linearGradient id="paint2_linear_115_95519" x1="-2.68761" y1="36.8289" x2="19.2447" y2="35.2545" gradientUnits="userSpaceOnUse">
<stop offset="0.16" stop-color="#FD3A60"/>
<stop offset="0.426197" stop-color="#E04DC0"/>
<stop offset="0.60438" stop-color="#B563F9"/>
<stop offset="0.843408" stop-color="#7C86FE"/>
</linearGradient>
</defs>
</svg>
