<svg width="24" height="24" viewBox="0 0 24 24" fill="none" xmlns="http://www.w3.org/2000/svg">
<path fill-rule="evenodd" clip-rule="evenodd" d="M7.94465 4.16773C9.09742 4.06764 10.4498 4 11.9995 4C13.5488 4 14.9007 4.06759 16.0533 4.16762C18.0784 4.34338 19.091 4.43126 20.3803 5.72523C21.1587 6.50633 21.4966 7.16966 21.6778 7.99984H2.32149C2.50266 7.16963 2.84056 6.50634 3.61911 5.7251C4.90837 4.43136 5.92046 4.34348 7.94465 4.16773ZM2.08142 9.99976H21.9177C21.9684 10.6285 21.9991 11.2988 21.9991 11.9997C21.9991 12.7262 21.9661 13.4196 21.9121 14.0681C21.7505 16.0095 21.6697 16.9802 20.3803 18.2742C19.091 19.5681 18.0785 19.656 16.0535 19.8318C14.9009 19.9318 13.5489 19.9994 11.9996 19.9994C10.4497 19.9994 9.0973 19.9318 7.94449 19.8317C5.92039 19.6559 4.90835 19.568 3.61911 18.2743C2.32986 16.9806 2.24897 16.0104 2.08718 14.0699C2.03307 13.4209 2 12.7268 2 11.9997C2 11.2988 2.03073 10.6285 2.08142 9.99976ZM18.2484 13.9996C18.2484 14.6899 17.6888 15.2495 16.9985 15.2495C16.3082 15.2495 15.7486 14.6899 15.7486 13.9996C15.7486 13.3093 16.3082 12.7496 16.9985 12.7496C17.6888 12.7496 18.2484 13.3093 18.2484 13.9996Z" fill="#FF0032"/>
</svg>
